<svg xmlns="http://www.w3.org/2000/svg" viewBox="0 0 1024 1024" preserveAspectRatio="xMidYMid slice">
  <defs>
    <linearGradient id="hall" x1="0" y1="0" x2="0.9" y2="1">
      <stop offset="0" stop-color="#0d2a38"/>
      <stop offset="0.58" stop-color="#143f52"/>
      <stop offset="1" stop-color="#0b2330"/>
    </linearGradient>
    <radialGradient id="halo" cx="0.5" cy="0.24" r="0.44">
      <stop offset="0" stop-color="#f5e2b6" stop-opacity="0.7"/>
      <stop offset="0.5" stop-color="#d9b880" stop-opacity="0.34"/>
      <stop offset="1" stop-color="#b48f58" stop-opacity="0"/>
    </radialGradient>
  </defs>
  <rect width="1024" height="1024" fill="url(#hall)"/>
  <rect width="1024" height="1024" fill="url(#halo)"/>
  <g fill="#e6d5ad" fill-opacity="0.28">
    <rect x="64" y="180" width="34" height="844"/>
    <rect x="218" y="180" width="34" height="844"/>
    <rect x="372" y="180" width="34" height="844"/>
    <rect x="618" y="180" width="34" height="844"/>
    <rect x="772" y="180" width="34" height="844"/>
    <rect x="926" y="180" width="34" height="844"/>
  </g>
  <g stroke="#d9bb86" stroke-width="3" stroke-opacity="0.24" fill="none">
    <path d="M64 180h896"/>
    <path d="M64 264h896"/>
    <path d="M64 348h896"/>
    <path d="M64 432h896"/>
    <path d="M64 516h896"/>
    <path d="M64 600h896"/>
  </g>
  <ellipse cx="512" cy="832" rx="220" ry="108" fill="#d7b377" fill-opacity="0.36"/>
  <ellipse cx="512" cy="832" rx="122" ry="58" fill="#f5e7c5" fill-opacity="0.54"/>
</svg>
