<svg xmlns="http://www.w3.org/2000/svg" viewBox="0 0 1024 1024" preserveAspectRatio="xMidYMid slice">
  <defs>
    <linearGradient id="night" x1="0" y1="0" x2="0.9" y2="1">
      <stop offset="0" stop-color="#070b21"/>
      <stop offset="0.5" stop-color="#111741"/>
      <stop offset="1" stop-color="#050815"/>
    </linearGradient>
    <radialGradient id="mist" cx="0.78" cy="0.18" r="0.7">
      <stop offset="0" stop-color="#6e7dff" stop-opacity="0.34"/>
      <stop offset="0.5" stop-color="#251f63" stop-opacity="0.18"/>
      <stop offset="1" stop-color="#090f2b" stop-opacity="0"/>
    </radialGradient>
  </defs>
  <rect width="1024" height="1024" fill="url(#night)"/>
  <rect width="1024" height="1024" fill="url(#mist)"/>
  <g fill="#0a1230" fill-opacity="0.62">
    <rect x="60" y="300" width="70" height="724"/>
    <rect x="160" y="240" width="84" height="784"/>
    <rect x="280" y="190" width="64" height="834"/>
    <rect x="390" y="260" width="96" height="764"/>
    <rect x="520" y="200" width="76" height="824"/>
    <rect x="620" y="270" width="112" height="754"/>
    <rect x="770" y="220" width="86" height="804"/>
    <rect x="900" y="280" width="88" height="744"/>
  </g>
  <g stroke-width="4" stroke-opacity="0.34">
    <path d="M0 140h1024" stroke="#39d6ff"/>
    <path d="M0 210h1024" stroke="#f74fc2"/>
    <path d="M0 290h1024" stroke="#53cfff"/>
    <path d="M0 370h1024" stroke="#ff6db2"/>
    <path d="M0 460h1024" stroke="#63baff"/>
    <path d="M0 560h1024" stroke="#f652d6"/>
    <path d="M0 680h1024" stroke="#45d7ff"/>
    <path d="M0 820h1024" stroke="#f56cd4"/>
  </g>
  <rect y="824" width="1024" height="200" fill="#08112f" fill-opacity="0.56"/>
</svg>
